<?xml version="1.0" encoding="utf-8"?>
<!-- Svg Vector Icons : http://www.onlinewebfonts.com/icon -->
<!DOCTYPE svg PUBLIC "-//W3C//DTD SVG 1.1//EN" "http://www.w3.org/Graphics/SVG/1.1/DTD/svg11.dtd">
<svg version="1.1" xmlns="http://www.w3.org/2000/svg" xmlns:xlink="http://www.w3.org/1999/xlink" x="0px" y="0px" viewBox="0 0 1000 1000" enable-background="new 0 0 1000 1000" xml:space="preserve">
<metadata> Svg Vector Icons : http://www.onlinewebfonts.com/icon </metadata>
<g><g transform="translate(0.000000,511.000000) scale(0.100000,-0.100000)"><path d="M4903.2,4978.3c-138.3-31.6-288.4-106.7-416.9-203.5c-104.7-77-258.8-268.7-304.3-375.4c-23.7-53.3-35.6-63.2-71.1-53.3c-201.5,57.3-280.6,71.1-418.8,71.1c-306.2,0-545.3-100.8-772.5-326c-428.7-424.8-428.7-1090.6,2-1523.2c100.8-100.8,179.8-160,292.4-215.3l152.1-75.1v-571v-569l1793.9,4l1791.9,5.9l9.9,567l9.9,567l144.2,71.1c369.5,185.7,598.6,551.2,602.6,968.1c5.9,497.9-329.9,942.4-806.1,1066.9c-167.9,43.5-432.7,39.5-586.8-9.9c-67.2-21.7-130.4-39.5-138.3-39.5c-7.9,0-41.5,53.3-77,118.5c-37.5,73.1-118.5,169.9-201.5,250.9C5634.2,4966.5,5262.8,5067.2,4903.2,4978.3z"/><path d="M3380,807.7c-27.7-25.7-13.8-341.8,17.8-416.9c41.5-100.8,120.5-177.8,203.5-201.5c43.5-11.8,644.1-19.8,1572.6-19.8h1503.5l86.9,45.4c154.1,77.1,209.4,217.3,193.6,488l-5.9,108.7l-1780.1,5.9C4193.9,819.5,3385.9,815.6,3380,807.7z"/><path d="M3304.9-330.3c-114.6-43.5-160-83-691.5-620.4c-474.2-476.1-509.7-517.6-539.4-616.4c-39.5-134.3-39.5-165.9,0-300.3c29.6-100.7,65.2-140.3,636.2-717.2c665.8-667.8,711.2-703.3,912.8-703.3c156.1,0,256.8,55.3,448.5,241l166,162l237.1-235.1c128.4-130.4,233.1-247,231.2-260.8c-3.9-13.8-205.5-203.5-450.4-420.8c-245-219.3-456.4-418.8-470.2-446.5c-47.4-88.9-11.9-162,169.9-347.7c177.8-183.7,252.9-221.3,349.7-177.8c25.7,11.9,227.2,221.3,446.5,468.3c318.1,351.7,405,440.6,424.8,420.8c11.8-13.8,185.7-207.5,383.3-430.7c197.6-223.2,383.3-420.8,410.9-438.6c114.6-75.1,191.6-39.5,405,177.8c142.3,148.2,152.1,162,152.1,245c0,100.8-9.9,110.6-588.7,628.3l-363.5,322l260.8,260.8l260.8,262.8l83-37.5c343.8-150.2,756.7-124.5,1108.3,69.1c195.6,108.7,412.9,333.9,517.6,535.4c110.6,215.3,150.1,373.4,150.1,602.6c0,373.4-150.1,679.6-436.6,883.1c-187.7,134.3-345.7,187.7-596.7,199.5c-250.9,9.9-389.2-19.8-632.2-136.3c-237.1-116.6-474.2-355.6-590.7-594.7c-167.9-347.7-183.8-707.3-41.5-1031.3l41.5-98.8l-243-245c-134.3-134.3-258.8-252.9-280.5-264.7c-31.6-17.8-71.1,15.8-290.4,233.1l-252.9,252.9l154.1,160c193.6,199.5,239.1,284.5,239.1,448.5c-2,215.3-23.7,243-657.9,881.1c-318.1,318.1-614.4,602.6-661.9,630.2C3603.2-308.6,3413.5-290.8,3304.9-330.3z M3530.1-741.3c397.1-199.5,1055-940.4,989.8-1114.3c-31.6-81-235.1,4-478.1,199.5c-391.2,312.1-778.4,827.8-695.4,926.6C3380-687.9,3431.3-691.9,3530.1-741.3z M3144.8-1215.4c391.2-237.1,932.5-847.6,932.5-1051c0-280.5-865.3,405-1130.1,898.9C2828.7-1152.2,2921.6-1081,3144.8-1215.4z M2650.9-1636.2c312.2-158.1,825.8-679.6,952.3-966.1c77.1-171.9,7.9-217.3-183.7-122.5c-403,203.5-1072.8,972-962.2,1106.4C2490.9-1577,2542.3-1580.9,2650.9-1636.2z M4409.3-4072.2c61.2-37.5,122.5-142.3,122.5-209.4c0-84.9-57.3-191.6-126.4-233.1c-128.4-79-312.2-25.7-375.4,108.7c-39.5,83-39.5,132.3-4,215.3C4091.2-4036.7,4267-3981.3,4409.3-4072.2z M6132.1-4050.5c195.6-79,227.2-308.2,61.2-448.5c-118.5-98.8-314.1-55.3-389.2,86.9c-71.1,138.3,9.9,328,160,371.4C6047.1-4014.9,6043.1-4014.9,6132.1-4050.5z"/></g></g>
</svg>